HIERARCHY
ROOT Hips
{
	OFFSET 0.000000 0.000000 0.000000
	CHANNELS 6 Xposition Yposition Zposition Zrotation Yrotation Xrotation 
	JOINT LHipJoint
	{
		OFFSET 0.000000 0.000000 0.000000
		CHANNELS 3 Zrotation Yrotation Xrotation
		JOINT LeftUpLeg
		{
			OFFSET 1.363060 -1.794630 0.839290
			CHANNELS 3 Zrotation Yrotation Xrotation
			JOINT LeftLeg
			{
				OFFSET 2.448110 -6.726130 0.000000
				CHANNELS 3 Zrotation Yrotation Xrotation
				JOINT LeftFoot
				{
					OFFSET 2.562200 -7.039590 0.000000
					CHANNELS 3 Zrotation Yrotation Xrotation
					JOINT LeftToeBase
					{
						OFFSET 0.157640 -0.433110 2.322550
						CHANNELS 3 Zrotation Yrotation Xrotation
						End Site
						{
							OFFSET 0.000000 0.000000 0.000000
						}
					}
				}
			}
		}
	}
	JOINT RHipJoint
	{
		OFFSET 0.000000 0.000000 0.000000
		CHANNELS 3 Zrotation Yrotation Xrotation
		JOINT RightUpLeg
		{
			OFFSET -1.305520 -1.794630 0.839290
			CHANNELS 3 Zrotation Yrotation Xrotation
			JOINT RightLeg
			{
				OFFSET -2.542530 -6.985550 0.000000
				CHANNELS 3 Zrotation Yrotation Xrotation
				JOINT RightFoot
				{
					OFFSET -2.568260 -7.056230 0.000000
					CHANNELS 3 Zrotation Yrotation Xrotation
					JOINT RightToeBase
					{
						OFFSET -0.164730 -0.452590 2.363150
						CHANNELS 3 Zrotation Yrotation Xrotation
						End Site
						{
							OFFSET 0.000000 0.000000 0.000000
						}
					}
				}
			}
		}
	}
}
MOTION
Frames: 30
Frame Time: 0.008333
1.708583 17.301571 -0.120175 169.364075 -57.442195 -153.710942 -8.298166 -0.140189 4.274633 -11.793196 -23.260163 -34.352873 1.360721 1.742443 53.264268 5.465158 36.231314 12.135187 14.104500 -0.000000 -46.964900 9.858944 -0.071960 3.605961 5.990950 13.137833 -23.963830 0.674709 -0.198831 18.474649 -3.631370 -13.967404 -12.102405 0.101100 0.000000 -32.629300
1.728070 17.300654 -0.122976 169.095707 -56.756004 -153.572232 -8.237137 -0.313674 4.412111 -11.617329 -24.843407 -35.798947 1.486657 1.898707 56.360424 5.240403 35.033185 14.750860 14.813700 -0.000000 -46.819500 9.982634 0.032998 3.454886 5.592311 13.053333 -24.054404 0.653824 -0.270784 18.924996 -3.506627 -13.450381 -12.068451 0.108299 0.000000 -33.585000
1.746614 17.299608 -0.124507 168.847197 -56.046214 -153.467103 -8.182848 -0.481647 4.529602 -11.497459 -26.241451 -37.256318 1.602484 2.055980 59.421004 5.015428 33.598463 17.115860 15.131800 0.000001 -46.226800 10.107478 0.129217 3.308117 5.203216 12.912189 -24.149721 0.641661 -0.341889 19.359719 -3.364264 -12.855514 -12.010306 0.109799 0.000000 -34.637900
1.764189 17.298578 -0.125258 168.619217 -55.310792 -153.387860 -8.135419 -0.644443 4.625650 -11.444648 -27.434202 -38.728950 1.713753 2.214489 62.438706 4.803162 32.044015 19.208032 15.141400 -0.000001 -45.540800 10.232922 0.215227 3.173554 4.820766 12.730156 -24.260259 0.636199 -0.410790 19.768968 -3.207196 -12.196576 -11.916141 0.102500 -0.000000 -35.850100
1.780782 17.297619 -0.125774 168.412163 -54.550231 -153.325697 -8.095564 -0.801630 4.698724 -11.467912 -28.405327 -40.225769 1.826515 2.375582 65.423784 4.610707 30.457600 20.987686 14.909699 -0.000000 -44.765100 10.357915 0.290379 3.058220 4.443435 12.522486 -24.396360 0.636681 -0.475902 20.150901 -3.039214 -11.482777 -11.803772 0.091600 -0.000001 -37.071800
1.796509 17.296790 -0.126409 168.219784 -53.765420 -153.268818 -8.061677 -0.954662 4.750289 -11.571960 -29.162084 -41.749276 1.944714 2.537969 68.372664 4.445541 28.952650 22.502980 14.558000 0.000000 -44.330200 10.483208 0.355294 2.965732 4.065070 12.296529 -24.567382 0.641362 -0.536540 20.503894 -2.862381 -10.722192 -11.671376 0.077100 -0.000000 -38.317400
1.811462 17.296167 -0.127573 168.036852 -52.960135 -153.206607 -8.033208 -1.102913 4.780703 -11.760268 -29.710868 -43.307189 2.072920 2.702860 71.298188 4.307035 27.569236 23.748150 14.135200 -0.000001 -43.957600 10.609275 0.410614 2.898553 3.681901 12.058134 -24.779035 0.648958 -0.592073 20.827716 -2.679199 -9.923354 -11.524138 0.060500 0.000000 -39.553600
1.825943 17.295800 -0.129495 167.849618 -52.137386 -153.126024 -8.006123 -1.248102 4.793505 -12.032264 -30.083510 -44.894833 2.210988 2.867840 74.185695 4.197673 26.376109 24.835432 13.744900 -0.000000 -44.309700 10.738543 0.458823 2.854724 3.285426 11.803656 -25.033214 0.657495 -0.642730 21.123550 -2.490550 -9.091342 -11.355683 0.041500 -0.000000 -40.867201
1.840251 17.295734 -0.132323 167.650380 -51.306029 -153.020804 -7.979219 -1.388911 4.789411 -12.386836 -30.299660 -46.515449 2.361757 3.034840 77.044332 4.110313 25.340876 25.763390 13.379001 -0.000000 -44.903699 10.871656 0.502179 2.832307 2.872417 11.533357 -25.327556 0.666567 -0.688500 21.397516 -2.298826 -8.231273 -11.185969 0.024500 0.000000 -42.102199
1.854666 17.296027 -0.136096 167.427792 -50.473654 -152.884166 -7.948858 -1.525348 4.770921 -12.821076 -30.394156 -48.162965 2.524570 3.203327 79.861602 4.040146 24.443823 26.603099 13.057500 -0.000000 -45.925400 11.010777 0.543565 2.826585 2.436241 11.241637 -25.655635 0.674270 -0.730012 21.649705 -2.105407 -7.351969 -11.006493 0.008100 -0.000001 -43.364199
1.869514 17.296818 -0.140806 167.171971 -49.650449 -152.711475 -7.912320 -1.656433 4.739681 -13.331410 -30.397840 -49.833118 2.699877 3.374048 82.630923 3.979186 23.625546 27.382732 12.756700 -0.000000 -47.180100 11.157285 0.585923 2.832767 1.972025 10.925759 -26.007838 0.679322 -0.767795 21.883423 -1.912614 -6.462971 -10.823521 -0.006100 0.000000 -44.613600
1.885217 17.298186 -0.146405 166.870947 -48.846176 -152.499141 -7.866495 -1.781327 4.697045 -13.914457 -30.341981 -51.519898 2.887702 3.547516 85.342449 3.919573 22.820103 28.128150 12.445500 -0.000000 -48.491800 11.312775 0.632312 2.845683 1.474548 10.583941 -26.372227 0.679743 -0.802487 22.098878 -1.723166 -5.578279 -10.635366 -0.018400 -0.000001 -45.887000
1.901944 17.300333 -0.152697 166.520938 -48.071961 -152.247593 -7.808941 -1.899760 4.644521 -14.563346 -30.256535 -53.216776 3.087617 3.723499 87.984376 3.854873 21.967461 28.866280 12.094200 0.000000 -49.794799 11.477219 0.685592 2.861474 0.939138 10.222403 -26.735741 0.674485 -0.834307 22.299974 -1.540911 -4.712961 -10.459991 -0.026601 0.000000 -46.988200
1.920021 17.303422 -0.159660 166.108024 -47.335841 -151.951295 -7.735744 -2.011286 4.583906 -15.277652 -30.171212 -54.915919 3.298441 3.901567 90.543967 3.780903 21.026071 29.621893 11.682000 -0.000001 -51.053799 11.653397 0.748264 2.875108 0.357728 9.835213 -27.087075 0.660611 -0.864188 22.481972 -1.367651 -3.882327 -10.276800 -0.033600 0.000000 -48.171100
1.939664 17.307642 -0.167230 165.628287 -46.645571 -151.610307 -7.645161 -2.115898 4.516083 -16.048917 -30.107626 -56.613770 3.520250 4.081542 93.015882 3.694420 19.960550 30.393358 11.183500 -0.000000 -52.113600 11.841041 0.822094 2.885087 -0.273936 9.434467 -27.413927 0.636092 -0.892152 22.643374 -1.207740 -3.108003 -10.092567 -0.038700 -0.000000 -49.338300
1.961072 17.313117 -0.175392 165.074659 -46.007392 -151.222092 -7.535151 -2.213790 4.441972 -16.870543 -30.084830 -58.307138 3.753274 4.263150 95.398267 3.594718 18.760680 31.171861 10.587401 0.000000 -52.825800 12.041173 0.908435 2.889540 -0.960814 9.024869 -27.706463 0.598611 -0.918536 22.779720 -1.063959 -2.407916 -9.899854 -0.042900 0.000000 -50.590300
1.984312 17.319936 -0.184055 164.450260 -45.424832 -150.788319 -7.405114 -2.306369 4.362721 -17.725451 -30.116034 -59.998596 3.997061 4.445502 97.691886 3.484253 17.445813 31.958627 9.904000 0.000000 -53.276900 12.252099 1.007680 2.890541 -1.704888 8.627680 -27.958180 0.546974 -0.943046 22.893216 -0.940455 -1.801646 -9.717098 -0.045200 -0.000000 -51.670099
2.009449 17.328113 -0.193312 163.753326 -44.899847 -150.307642 -7.254312 -2.394645 4.279585 -18.599672 -30.212392 -61.689827 4.251949 4.628112 99.902982 3.366573 16.050395 32.742397 9.151300 -0.000000 -53.471600 12.474222 1.119870 2.888177 -2.508616 8.248851 -28.163943 0.479788 -0.965971 22.981574 -0.838717 -1.301000 -9.539921 -0.046600 0.000001 -52.633200
2.036508 17.337581 -0.203267 162.984265 -44.431612 -149.779126 -7.082359 -2.480110 4.194142 -19.473535 -30.382255 -63.384443 4.517425 4.810110 102.039488 3.247092 14.628339 33.527387 8.364000 0.000000 -53.676400 12.707837 1.244405 2.883261 -3.372239 7.894668 -28.320882 0.395764 -0.987583 23.040919 -0.759722 -0.915930 -9.358644 -0.048200 0.000000 -53.582100
2.065432 17.348206 -0.213929 162.150989 -44.019218 -149.207369 -6.891381 -2.564268 4.106917 -20.320918 -30.624430 -65.092767 4.796662 4.991479 104.121195 3.129040 13.218184 34.278167 7.560700 0.000000 -53.749900 12.951563 1.380060 2.877022 -4.290528 7.573157 -28.427335 0.295587 -1.008000 23.073514 -0.703817 -0.648896 -9.181088 -0.050301 0.000000 -54.424800
2.096325 17.359678 -0.225381 161.257314 -43.659511 -148.595965 -6.683169 -2.648852 4.018621 -21.113305 -30.936199 -66.823771 5.091806 5.171689 106.166434 3.016172 11.864668 34.981634 6.770400 0.000001 -53.817900 13.205101 1.525840 2.869342 -5.257466 7.284726 -28.482814 0.180093 -1.027711 23.081593 -0.669969 -0.496018 -9.007281 -0.053500 -0.000000 -55.171001
2.129110 17.371770 -0.237581 160.312187 -43.349732 -147.952041 -6.460149 -2.735786 3.929977 -21.819262 -31.312064 -68.587146 5.404439 5.349719 108.190820 2.911551 10.604190 35.636895 6.019700 -0.000000 -54.050400 13.467745 1.680563 2.858763 -6.264331 7.024346 -28.486600 0.051162 -1.047329 23.067403 -0.655848 -0.446277 -8.834261 -0.058399 -0.000000 -55.846000
2.163633 17.384170 -0.250512 159.326171 -43.086117 -147.284595 -6.225642 -2.826717 3.840801 -22.405542 -31.739806 -70.393432 5.737646 5.524433 110.211292 2.815988 9.452260 36.226825 5.320101 -0.000000 -54.487700 13.738523 1.843065 2.843093 -7.299725 6.784226 -28.437500 -0.088433 -1.067412 23.034206 -0.658467 -0.483728 -8.662687 -0.065400 0.000000 -56.471199
2.200056 17.396483 -0.264134 158.306380 -42.863940 -146.603596 -5.983092 -2.923183 3.750001 -22.838772 -32.201860 -72.252449 6.094436 5.694369 112.241471 2.728676 8.406977 36.734956 4.672201 -0.000000 -55.014400 14.016505 2.012710 2.818996 -8.350341 6.553969 -28.332745 -0.235334 -1.088530 22.986820 -0.674155 -0.587831 -8.496984 -0.074400 -0.000000 -57.004200
2.238279 17.408436 -0.278362 157.261665 -42.679440 -145.919990 -5.735259 -3.026523 3.656238 -23.089745 -32.678734 -74.168785 6.474990 5.857030 114.283080 2.648584 7.458106 37.165147 4.073100 -0.000001 -55.665900 14.301218 2.189153 2.782024 -9.404568 6.318483 -28.168815 -0.386148 -1.111457 22.927660 -0.698557 -0.735761 -8.333724 -0.085200 0.000000 -57.505000
2.278219 17.419829 -0.293012 156.202323 -42.528962 -145.247081 -5.485027 -3.137914 3.557608 -23.131867 -33.146460 -76.145662 6.878538 6.009613 116.331511 2.573507 6.581001 37.517348 3.509301 0.000000 -56.328700 14.591577 2.372198 2.727870 -10.450871 6.064879 -27.941248 -0.537200 -1.136792 22.859668 -0.727467 -0.904934 -8.174249 -0.097200 0.000000 -57.974000
2.319919 17.430404 -0.308038 155.132321 -42.406534 -144.593985 -5.234191 -3.258132 3.452002 -22.945019 -33.577631 -78.182830 7.302073 6.149102 118.374608 2.501003 5.745332 37.798524 2.963400 -0.000000 -56.858800 14.887415 2.561883 2.653144 -11.480812 5.781991 -27.646833 -0.685535 -1.165204 22.786300 -0.756727 -1.073401 -8.019444 -0.109599 -0.000000 -58.393900
2.363551 17.440129 -0.323280 154.053561 -42.311141 -143.974155 -4.984044 -3.387137 3.334955 -22.522276 -33.944637 -80.259430 7.737964 6.272297 120.387220 2.429491 4.926992 38.030943 2.422300 0.000000 -57.293600 15.189224 2.759589 2.551022 -12.489094 5.459086 -27.267681 -0.829426 -1.197180 22.701250 -0.784039 -1.230581 -7.863546 -0.122000 0.000001 -58.884600
2.408738 17.448817 -0.338748 152.973630 -42.234519 -143.391317 -4.735743 -3.525812 3.207535 -21.849726 -34.219513 -82.378438 8.178540 6.376778 122.345305 2.357572 4.099563 38.230605 1.870000 0.000000 -57.478800 15.495676 2.964092 2.423964 -13.472753 5.098460 -26.814031 -0.967155 -1.233026 22.612696 -0.807008 -1.363200 -7.712311 -0.133300 0.000000 -59.330100
2.455186 17.456438 -0.354371 151.896888 -42.171667 -142.850881 -4.489880 -3.674260 3.069340 -20.927552 -34.375755 -84.526130 8.612935 6.460894 124.217398 2.285077 3.251696 38.415759 1.300101 0.000000 -57.355700 15.806358 3.174816 2.272470 -14.432526 4.704205 -26.285209 -1.098669 -1.272968 22.520900 -0.825180 -1.469694 -7.562372 -0.143300 0.000000 -59.766800
